<svg height="512pt" viewBox="-72 0 512 512" width="512pt" xmlns="http://www.w3.org/2000/svg"><path d="m367.128906 312.6875c0 59.136719-28.21875 114.117188-75.886718 148.660156v50.652344h-215.355469v-50.652344c-47.667969-34.542968-75.886719-89.523437-75.886719-148.660156 0-40.027344 12.652344-78.074219 36.605469-110.015625 20.917969-27.890625 49.835937-49.554687 82.285156-61.820313v-73.390624h129.351563v73.390624c32.449218 12.265626 61.363281 33.929688 82.28125 61.820313 23.953124 31.941406 36.605468 69.988281 36.605468 110.015625zm0 0" fill="#f0e7df"/><path d="m367.128906 312.6875c0 59.136719-28.21875 114.117188-75.886718 148.660156v50.652344h-107.675782v-444.539062h64.675782v73.390624c32.445312 12.265626 61.363281 33.929688 82.28125 61.820313 23.953124 31.941406 36.605468 69.988281 36.605468 110.015625zm0 0" fill="#dfcdbd"/><path d="m323.71875 310.878906c0 47.230469-23.59375 90.996094-63.125 117.078125l-40.472656 26.71875h-73.113282l-40.476562-26.71875c-39.527344-26.082031-63.125-69.847656-63.125-117.078125 0-26.746094 7.492188-52.71875 21.667969-75.132812l4.386719-6.941406h228.207031l4.386719 6.941406c14.175781 22.414062 21.664062 48.386718 21.664062 75.132812zm0 0" fill="#00ad95"/><path d="m323.71875 310.878906c0 47.230469-23.59375 90.996094-63.125 117.078125l-40.472656 26.71875h-36.554688v-225.871093h114.101563l4.386719 6.941406c14.175781 22.414062 21.664062 48.386718 21.664062 75.132812zm0 0" fill="#006659"/><path d="m201.554688 376.019531h29.839843v29.839844h-29.839843zm0 0" fill="#ffc473"/><path d="m244.824219 337.300781h29.839843v29.84375h-29.839843zm0 0" fill="#ffc473"/><path d="m99.3125 0h168.503906v97.304688h-168.503906zm0 0" fill="#ff8900"/><path d="m183.566406 0h84.25v97.304688h-84.25zm0 0" fill="#c06100"/></svg>